<svg xmlns="http://www.w3.org/2000/svg" viewBox="950 950 1605 1100" fill="#0081FB">
  <path d="M2080,1000c-123.3911,0-219.8478,92.936-307.164,210.9931C1652.8473,1058.2153,1552.5,1000,1432.4138,1000,1187.5862,1000,1000,1318.6207,1000,1655.8621,1000,1866.8965,1102.0956,2000,1273.1035,2000c123.0805,0,211.6-58.0259,368.9655-333.1034,0,0,65.5973-115.8413,110.7249-195.6386l23.72,38.2978,49.9647,82.5351l73.7931,124.1379C2020.2989,1918.4789,2100.39,2000,2245.5172,2000c166.5959,0,259.31-134.9233,259.31-350.3448C2504.8276,1296.5517,2313.0118,1000,2080,1000ZM1522.069,1592.4138c-127.5862,200-171.7242,244.8276-242.7587,244.8276-73.1034,0-116.5517-64.1784-116.5517-178.6207,0-244.8276,122.069-495.1724,267.5862-495.1724,78.8013,0,144.6539,45.51,245.5224,189.9131C1580.088,1500.2723,1522.069,1592.4138,1522.069,1592.4138Zm481.5283-25.178-88.23-147.1481q-35.8152-58.2482-68.8384-107.23c79.52-122.7353,145.1135-183.8919,223.1261-183.8919,162.0691,0,291.7243,238.6207,291.7243,531.7241,0,111.7242-36.5935,176.5518-112.4139,176.5518C2176.2949,1837.2414,2141.5787,1789.2474,2003.5973,1567.2358Z"/>
</svg>
