<svg xmlns="http://www.w3.org/2000/svg" viewBox="0 0 36 36" fill="none">
  <path d="M18 22.4c-1.45-1.8-2.75-3.8-3.85-5.6-.95-1.55-2.15-3.55-3.8-3.55-2.1 0-3.85 2.9-3.85 6.75 0 3.15 1.25 5.5 3.55 5.5 1.8 0 2.95-1.35 4.6-4.15l1.2-2.05c.45-.75.9-1.5 1.35-2.15.6-.85 1.75-2.5 3.35-2.5 3.3 0 5.95 3.55 5.95 8.3 0 5.4-3.15 8.6-7.5 8.6-2.5 0-4.55-1.1-6.55-3.65l2.15-1.8c1.5 1.85 2.85 2.65 4.45 2.65 2.6 0 4.35-2.35 4.35-5.75 0-3.1-1.3-5.55-3.15-5.55-1.1 0-2 .95-3.15 2.65L15.9 24.2c-1.8 2.95-3.5 4.8-6.25 4.8C5.7 29 3 25.6 3 20.05 3 14.4 5.85 10.5 10.3 10.5c2.75 0 4.55 1.55 6.25 4.15L18 22.4z" fill="#0081FB"/>
  <path d="M25.5 10.5c-2.45 0-4.3 1.35-6.1 3.85l1.15 1.75c1.55-2.15 2.95-3.15 4.65-3.15 2.55 0 4.3 2.55 4.3 5.85 0 3.3-1.75 5.6-4.3 5.6-.95 0-1.75-.3-2.65-1.1l-1.1.85-.95 1.55c1.35 1.2 2.8 1.85 4.65 1.85 4.4 0 7.35-3.45 7.35-8.55 0-5.05-3.05-8.5-7-8.5z" fill="#0081FB"/>
</svg>
